<svg width="66" height="43" xmlns="http://www.w3.org/2000/svg" fill-rule="evenodd" clip-rule="evenodd" stroke-linejoin="round" stroke-miterlimit="2"><path d="M0 0l20.36 34.04c3.46 6.092 7.584 9.006 12.64 9.006 5.056 0 9.18-2.914 12.64-9.007L66 0zm33.93 5.033a3.71 3.71 0 0 1 3.727 3.71c0 2.118-1.73 3.707-3.726 3.707h-5.587V5.033zM28.344 17.35h5.19c1.463 0 2.794-.397 3.99-1.06v24.372c-1.463.662-2.926 1.06-4.523 1.06-1.73 0-3.194-.398-4.657-1.193zm5.19-.926h-5.19v-3.047h5.588c2.53 0 4.66-2.12 4.66-4.635 0-2.517-2.13-4.636-4.66-4.636h-9.313V1.324H35.13c3.46.795 5.987 3.84 5.987 7.418 0 4.238-3.327 7.682-7.585 7.682zm-17.3-9.14l-3.06 5.166-6.52-11.126h13.573V14.04zM14.24 12.45l1.73 2.782-2.662 4.238-1.596-2.65zm.532-.927l1.464-2.517 7.585 12.716v4.768zm6.254 4.106V1.456h2.662v18.675zM37.657 1.323h3.593v3.71c-.798-1.458-2.13-2.782-3.593-3.71zM44.71 15.63L42.048 20V1.324h2.662zm.798-14.306h7.585L45.508 14.04zm-3.46 20.398L54.024 1.324h2.928L42.048 26.357zm9.448-9.404l2.927 4.503-1.596 2.782L49.9 15.1zm.4-.795l6.12-10.2h5.59l-8.783 14.703zM5.588 1.323l7.05 12.054-1.463 2.65L2.395 1.323zm8.25 19.074l2.66-4.238 7.32 12.052v8.476c-.8-.927-1.465-1.986-2.13-3.31zm10.777 17.218V5.033h2.794V40c-.93-.53-1.862-1.325-2.793-2.385zm13.84 2.517v-24.37c1.196-.795 2.128-1.987 2.793-3.18V37.75c-.93 1.06-1.863 1.854-2.794 2.384zm5.987-6.755a41.88 41.88 0 0 1-2.396 3.576v-8.74l7.32-12.187 2.926 4.503z" fill="#fff" fill-rule="nonzero"/></svg>